<svg width="100" height="100" xmlns="http://www.w3.org/2000/svg" xmlns:xlink="http://www.w3.org/1999/xlink">
 <defs>
  <filter color-interpolation-filters="sRGB" id="filter12582" x="-0.02355" width="1.04711" y="-0.02446" height="1.04893">
   <feGaussianBlur stdDeviation="0.74745" id="feGaussianBlur12584"/>
  </filter>
  <filter color-interpolation-filters="sRGB" id="filter12920" x="-0.21759" width="1.43517" y="-0.05865" height="1.11731">
   <feGaussianBlur stdDeviation="2.01399" id="feGaussianBlur12922"/>
  </filter>
  <filter color-interpolation-filters="sRGB" id="filter12920-4" x="-0.21759" width="1.43517" y="-0.05865" height="1.11731">
   <feGaussianBlur stdDeviation="2.01399" id="feGaussianBlur12922-5"/>
  </filter>
  <linearGradient id="linearGradient12590">
   <stop stop-color="#b7f46e" offset="0" id="stop12586"/>
   <stop stop-color="#b7f46e" stop-opacity="0" offset="1" id="stop12588"/>
  </linearGradient>
  <radialGradient xlink:href="#linearGradient12590" id="radialGradient12592" cx="106.11682" cy="66.62351" fx="106.11682" fy="66.62351" r="39.87498" gradientTransform="matrix(1,0,0,0.96445351,-49.069463,-18.885547)" gradientUnits="userSpaceOnUse"/>
 </defs>
 <metadata id="metadata188">image/svg+xmlimage/svg+xml</metadata>
 <g id="g56">
  <title>background</title>
  <rect fill="none" id="canvas_background" height="25.25579" width="25.25579" y="-1" x="-1"/>
 </g>
 <g id="g64" transform="matrix(0.86268611,0,0,0.95315225,0.2955888,5.5347699)">
  <title>Layer 1</title>
  <g id="layer1"/>
  <ellipse fill="url(#radialGradient12592)" stroke="#2cff91" stroke-width="0.265" stroke-linejoin="round" stroke-dashoffset="0" filter="url(#filter12582)" stroke-miterlimit="4" id="path261" cx="57.04735" cy="45.36973" rx="38.0811" ry="36.66369"/>
  <path fill="#658eda" stroke="#9bc221" stroke-width="0.26458px" filter="url(#filter12920)" d="m88.08041,4.83914c-0.29707,0.18549 1.66536,3.81704 5.17046,9.68906c3.014,5.04928 9.0641,14.73386 13.08809,23.57625c0.64295,1.47096 1.28366,2.91597 1.284,4.27178c0.0303,0.77244 -0.10968,1.62939 -0.20086,2.62292c-0.0296,0.32262 -0.0535,0.65578 -0.0641,1.00051c-0.006,0.9778 -0.39451,2.07115 -0.74907,3.25264c-0.58223,1.85006 -1.28219,3.68388 -1.97712,5.44864c-1.93461,4.90982 -4.12976,9.87766 -5.89001,13.86442c-5.09087,11.05427 -8.2262,18.44837 -7.8284,18.67167c0,0 0,0 0,0c0,0 0,0 0,0c0,0 0,0 0,0c0,0 0,0 0,0c0,0 0,0 0,0c0,0 0,0 0,0c0,0 0,0 0,0c0,0 0,0 0,0c0,0 0,0 0,0c0,0 0,0 0,0c0.0021,0.001 0.0019,0.00099 0.0018,0.00092c-0.00014,-0.00007 -0.00028,-0.00013 0.0018,0.00088c0,0 0,0 0,0c0,0 0.00001,0 0.00001,0c0,0 0,0 0,0c0,0 0,0 0,0c0,0 0,0 0,0c0,0 0,0 0,0c0,0 0,0 0,0c0,0 0,0 0,0c0,0 0,0 0,0c0,0 0,0 0,0c0.41852,0.18066 4.27526,-6.85994 9.80606,-17.73288c1.95076,-3.9884 4.23783,-8.81847 6.29858,-13.84409c0.72963,-1.77817 1.46804,-3.66143 2.09566,-5.61082c0.38406,-1.13813 0.81787,-2.46493 0.88484,-3.97361c0.007,-0.26547 0.0289,-0.54186 0.0567,-0.83046c0.0859,-0.89009 0.22685,-1.85707 0.20397,-2.94617c-0.0963,-2.02244 -0.82915,-3.79385 -1.55672,-5.28984c-4.37863,-9.3433 -10.47962,-18.31387 -14.01171,-23.41217c-3.89077,-5.61601 -6.35782,-8.91961 -6.614,-8.75965l0.00002,0z" id="path283-4"/>
  <path fill="#658eda" stroke="#9bc221" stroke-width="0.26458px" filter="url(#filter12920-4)" d="m27.01854,4.91349c0.29707,0.18549 -1.66536,3.81704 -5.17046,9.68906c-3.014,5.04928 -9.0641,14.73386 -13.08809,23.57625c-0.64295,1.47096 -1.28366,2.91597 -1.284,4.27178c-0.03033,0.77244 0.10968,1.62939 0.20086,2.62292c0.02961,0.32262 0.05353,0.65578 0.06407,1.00051c0.0062,0.9778 0.39451,2.07115 0.74907,3.25264c0.58223,1.85006 1.28219,3.68388 1.97712,5.44864c1.93461,4.90982 4.12976,9.87766 5.89001,13.86442c5.09087,11.05427 8.2262,18.44837 7.8284,18.67167c0,0 0,0 0,0c0,0 0,0 0,0c0,0 0,0 0,0c0,0 0,0 0,0c0,0 0,0 0,0c0,0 0,0 0,0c0,0 0,0 0,0c0,0 0,0 0,0c0,0 0,0 0,0c0,0 0,0 0,0c-0.0021,0.001 -0.0019,0.00099 -0.0018,0.00092c0.00014,-0.00007 0.00028,-0.00013 -0.0018,0.00088c0,0 0,0 0,0c0,0 -0.00001,0 -0.00001,0c0,0 0,0 0,0c0,0 0,0 0,0c0,0 0,0 0,0c0,0 0,0 0,0c0,0 0,0 0,0c0,0 0,0 0,0c0,0 0,0 0,0c0,0 0,0 0,0c-0.41852,0.18066 -4.27526,-6.85994 -9.80606,-17.73288c-1.95076,-3.9884 -4.23783,-8.81847 -6.29858,-13.84409c-0.72963,-1.77817 -1.46804,-3.66143 -2.09566,-5.61082c-0.38406,-1.13813 -0.81787,-2.46493 -0.88484,-3.97361c-0.0074,-0.26547 -0.02887,-0.54186 -0.05671,-0.83046c-0.08586,-0.89009 -0.22685,-1.85707 -0.20397,-2.94617c0.09631,-2.02244 0.82915,-3.79385 1.55672,-5.28984c4.37867,-9.3433 10.47966,-18.31387 14.01175,-23.41217c3.89077,-5.61601 6.35782,-8.91961 6.614,-8.75965l-0.00002,0z" id="path283-4-0"/>
 </g>
</svg>